<svg id="activeuser.svg" xmlns="http://www.w3.org/2000/svg" width="37" height="38.031" viewBox="0 0 37 38.031">
  <metadata><?xpacket begin="﻿" id="W5M0MpCehiHzreSzNTczkc9d"?>
<x:xmpmeta xmlns:x="adobe:ns:meta/" x:xmptk="Adobe XMP Core 5.6-c142 79.160924, 2017/07/13-01:06:39        ">
   <rdf:RDF xmlns:rdf="http://www.w3.org/1999/02/22-rdf-syntax-ns#">
      <rdf:Description rdf:about=""/>
   </rdf:RDF>
</x:xmpmeta>





















<?xpacket end="w"?></metadata>
<defs>
    <style>
      .cls-1, .cls-2 {
        fill: #3f51b5;
      }

      .cls-1 {
        fill-rule: evenodd;
      }
    </style>
  </defs>
  <path id="Forma_1" data-name="Forma 1" class="cls-1" d="M201.5,188a6.49,6.49,0,0,0-4.671,11.006H172.237s0.515,0.078-2.989-.127c-0.494-.684-0.15-2.068.188-2.841l0.827-2.893a39.281,39.281,0,0,1,4.891-8.116,3.71,3.71,0,0,1,4.733-.815,12.758,12.758,0,0,1,2.24,1.993A7.262,7.262,0,0,0,187,187.918h1.528a7.249,7.249,0,0,0,4.874-1.711,13.736,13.736,0,0,1,2.21-2.039,3.394,3.394,0,0,1,4.406.861,20.429,20.429,0,0,1,2.125,3.036C201.931,188.044,201.722,188,201.5,188Zm-14.046-3.906c-5.4,0-9.782-5.271-9.782-11.769s4.378-11.314,9.782-11.314,9.787,4.816,9.787,11.314S192.859,184.094,187.454,184.094Z" transform="translate(-169 -161)"/>
  <circle id="Forma_1_copy" data-name="Forma 1 copy" class="cls-2" cx="33" cy="34" r="4"/>
</svg>
