<svg xmlns="http://www.w3.org/2000/svg" width="279.062" height="322" viewBox="0 0 279.062 322">
  <metadata><?xpacket begin="﻿" id="W5M0MpCehiHzreSzNTczkc9d"?>
<x:xmpmeta xmlns:x="adobe:ns:meta/" x:xmptk="Adobe XMP Core 5.6-c142 79.160924, 2017/07/13-01:06:39        ">
   <rdf:RDF xmlns:rdf="http://www.w3.org/1999/02/22-rdf-syntax-ns#">
      <rdf:Description rdf:about=""/>
   </rdf:RDF>
</x:xmpmeta>
                                                                                                    
                                                                                                    
                                                                                                    
                                                                                                    
                                                                                                    
                                                                                                    
                                                                                                    
                                                                                                    
                                                                                                    
                                                                                                    
                                                                                                    
                                                                                                    
                                                                                                    
                                                                                                    
                                                                                                    
                                                                                                    
                                                                                                    
                                                                                                    
                                                                                                    
                                                                                                    
                           
<?xpacket end="w"?></metadata>
<defs>
    <style>
      .cls-1 {
        fill: #ff1f54;
        fill-rule: evenodd;
      }
    </style>
  </defs>
  <path id="Polygon_1" data-name="Polygon 1" class="cls-1" d="M142.5,322L72.735,281.75,2.971,241.5V80.5L72.735,40.25,142.5,0l69.765,40.25L282.029,80.5v161l-69.764,40.25Zm-5.608-218.388h-6.768v23.232l-15.168-23.232h-6.768V137.5h6.768V114.46l15.168,23.04h6.768V103.612Zm22.032-.48a17.055,17.055,0,0,0-8.616,2.208,16.017,16.017,0,0,0-6.1,6.168,19.116,19.116,0,0,0,0,17.928,15.972,15.972,0,0,0,6.1,6.192,17.915,17.915,0,0,0,17.232,0,15.972,15.972,0,0,0,6.1-6.192,19.116,19.116,0,0,0,0-17.928,16.017,16.017,0,0,0-6.1-6.168,17.055,17.055,0,0,0-8.616-2.208h0Zm0,6.24a10.027,10.027,0,0,1,5.232,1.344,9.2,9.2,0,0,1,3.528,3.864,14.227,14.227,0,0,1,0,11.76,9.189,9.189,0,0,1-3.528,3.864,10.856,10.856,0,0,1-10.464,0,9.189,9.189,0,0,1-3.528-3.864,14.227,14.227,0,0,1,0-11.76,9.2,9.2,0,0,1,3.528-3.864,10.027,10.027,0,0,1,5.232-1.344h0ZM83.9,171.212H77.133V205.1H95.277v-5.184H83.9v-28.7Zm31.3-.48a17.066,17.066,0,0,0-8.616,2.208,16.017,16.017,0,0,0-6.1,6.168,19.119,19.119,0,0,0,0,17.928,15.958,15.958,0,0,0,6.1,6.192,17.915,17.915,0,0,0,17.232,0,15.958,15.958,0,0,0,6.1-6.192,19.116,19.116,0,0,0,0-17.928,16.017,16.017,0,0,0-6.1-6.168,17.066,17.066,0,0,0-8.616-2.208h0Zm0,6.24a10.036,10.036,0,0,1,5.232,1.344,9.2,9.2,0,0,1,3.528,3.864,14.227,14.227,0,0,1,0,11.76,9.189,9.189,0,0,1-3.528,3.864,10.856,10.856,0,0,1-10.464,0,9.189,9.189,0,0,1-3.528-3.864,14.227,14.227,0,0,1,0-11.76,9.2,9.2,0,0,1,3.528-3.864,10.036,10.036,0,0,1,5.232-1.344h0Zm37.728-6.1a17.147,17.147,0,0,0-8.784,2.208,15.249,15.249,0,0,0-5.88,6.12,20.234,20.234,0,0,0,0,17.9,15.036,15.036,0,0,0,5.9,6.1,17.407,17.407,0,0,0,8.808,2.184,17.006,17.006,0,0,0,7.752-1.7,15.084,15.084,0,0,0,5.472-4.536A15.97,15.97,0,0,0,169,192.956v-6.528H151.868v4.848H163.34a10.03,10.03,0,0,1-3.384,6,9.523,9.523,0,0,1-6.264,2.16,10.3,10.3,0,0,1-7.8-2.976q-2.856-2.976-2.856-8.3a12.946,12.946,0,0,1,1.248-5.856,9.077,9.077,0,0,1,3.5-3.84,9.943,9.943,0,0,1,5.184-1.344,9.519,9.519,0,0,1,5.16,1.368,8.07,8.07,0,0,1,3.192,3.672h7.1a13.605,13.605,0,0,0-5.232-8.232,16.689,16.689,0,0,0-10.272-3.048h0Zm37.056-.144a17.063,17.063,0,0,0-8.616,2.208,16.01,16.01,0,0,0-6.1,6.168,19.116,19.116,0,0,0,0,17.928,15.951,15.951,0,0,0,6.1,6.192,17.915,17.915,0,0,0,17.232,0,15.965,15.965,0,0,0,6.1-6.192,19.116,19.116,0,0,0,0-17.928,16.024,16.024,0,0,0-6.1-6.168,17.068,17.068,0,0,0-8.616-2.208h0Zm0,6.24a10.041,10.041,0,0,1,5.232,1.344,9.207,9.207,0,0,1,3.528,3.864,14.227,14.227,0,0,1,0,11.76,9.2,9.2,0,0,1-3.528,3.864,10.856,10.856,0,0,1-10.464,0,9.176,9.176,0,0,1-3.528-3.864,14.227,14.227,0,0,1,0-11.76,9.182,9.182,0,0,1,3.528-3.864,10.031,10.031,0,0,1,5.232-1.344h0Z" transform="translate(-2.969)"/>
</svg>
